<svg width="117" height="80" viewBox="0 0 117 80" fill="none" xmlns="http://www.w3.org/2000/svg">
<g clip-path="url(#clip0)">
<path d="M109.938 1.97531C117.85 4.57517 116.366 11.9681 116.769 21.5105C117 26.841 117.043 29.1649 116.957 34.0596C116.884 37.7778 117.49 44.3137 115.443 47.4365C113.353 50.6173 107.675 51.3871 104.086 52.1278C99.5608 53.0574 94.9776 53.6964 90.3656 53.9434C87.6417 54.0886 84.9178 54.2338 82.2082 54.4662C80.6084 54.6115 77.9854 54.4517 76.5585 55.3522C74.8291 56.4561 73.6328 61.496 71.6151 64.2702C69.8135 66.7393 67.4643 69.0632 64.726 70.4285C63.9621 70.8061 63.1262 71.1256 62.2758 70.9949C59.6095 70.6173 59.8113 66.0566 59.7969 64.0813C59.7825 62.4256 59.869 60.6681 60.2005 58.9978C60.5319 57.3275 59.1628 55.817 57.4765 55.9622L50.9765 56.5287C38.5098 56.732 35.5985 56.2673 24.3712 54.0015C19.8025 53.0864 17.1794 49.7313 16.9344 44.9092C16.6173 38.6057 16.8911 32.215 16.8623 25.9114C16.8479 20.7553 16.0408 14.931 18.7936 10.2832C21.6905 5.38853 27.9311 3.90705 33.5231 3.06464C47.5896 1.01671 61.757 0.101674 75.9821 3.66988e-06C75.9821 3.66988e-06 103.25 -0.217861 109.938 1.97531Z" fill="#F7BC28"/>
<path d="M39.0286 24.3282C58.125 24.8221 77.308 24.4154 96.3612 23.0356C99.114 22.8322 99.1428 18.4749 96.3612 18.6783C77.308 20.0581 58.125 20.4648 39.0286 19.971C36.247 19.8983 36.247 24.2556 39.0286 24.3282Z" fill="white"/>
<path d="M35.7571 36.5868C48.1086 36.5868 60.46 36.0058 72.8115 35.8606C82.3669 35.7589 91.8791 36.2237 101.406 35.3958C104.158 35.1634 104.187 30.8061 101.406 31.0385C91.8791 31.8519 82.3669 31.3871 72.8115 31.5033C60.46 31.6485 48.1086 32.2295 35.7571 32.2295C32.9755 32.2295 32.9611 36.5868 35.7571 36.5868Z" fill="white"/>
<path d="M16.214 75.4975C16.3581 74.626 15.796 73.7691 14.9313 73.5948C9.62748 72.5345 4.66961 70.0073 1.55653 65.3159C-3.77607 57.2695 5.77937 49.0487 12.582 46.3472C19.5721 43.573 27.9024 43.8926 34.3736 47.7706C34.7916 48.0175 35.1807 48.2789 35.5698 48.5694C40.225 51.9826 44.1164 58.7074 42.8769 64.3283C42.4157 66.4053 41.2772 68.3225 39.2018 69.8766C35.3392 72.7814 30.0931 73.8562 25.092 74.1322C24.1264 74.1903 23.2184 74.597 22.5842 75.3232C21.5321 76.5142 19.7738 78.3878 18.1596 79.6805C17.0931 80.5374 15.5366 79.5788 15.7672 78.2281L16.214 75.4975Z" fill="#39B55D"/>
<path d="M12.7691 57.7197C19.0673 57.7197 25.3656 57.7197 31.6638 57.7197C33.9842 57.7197 33.9842 54.0886 31.6638 54.0886C25.3656 54.0886 19.0673 54.0886 12.7691 54.0886C10.4487 54.0886 10.4487 57.7197 12.7691 57.7197Z" fill="white"/>
<path d="M11.8467 65.4466C18.3756 65.4466 24.9044 65.4466 31.4332 65.4466C33.7536 65.4466 33.7536 61.8156 31.4332 61.8156C24.9044 61.8156 18.3756 61.8156 11.8467 61.8156C9.52635 61.8156 9.52635 65.4466 11.8467 65.4466Z" fill="white"/>
</g>
<defs>
<clipPath id="clip0">
<rect width="117" height="80" fill="white"/>
</clipPath>
</defs>
</svg>
